HIERARCHY
ROOT Root
{
	OFFSET 0.00000 0.00000 0.00000
	CHANNELS 6 Xposition Yposition Zposition Zrotation Xrotation Yrotation
	JOINT Hip
	{
		OFFSET 0 0 0	
		CHANNELS 3 Zrotation Xrotation Yrotation
		JOINT Tummy
		{
			OFFSET 0 0.04 0	
			CHANNELS 3 Zrotation Xrotation Yrotation
			JOINT ChestBottom
			{
				OFFSET 0 0.194 0	
				CHANNELS 3 Zrotation Xrotation Yrotation
				JOINT ChestTop
				{
					OFFSET 0 0.166 0	
					CHANNELS 3 Zrotation Xrotation Yrotation
					JOINT LeftCollar
					{
						OFFSET 0 0.1 0	
						CHANNELS 3 Zrotation Xrotation Yrotation
						JOINT LeftUpperArm
						{
							OFFSET 0.156 -0.02 0.03	
							CHANNELS 3 Zrotation Xrotation Yrotation
							JOINT LeftForeArm
							{
								OFFSET 0.035 -0.27 -0.01	
								CHANNELS 3 Zrotation Xrotation Yrotation
								JOINT LeftHand
								{
									OFFSET 0.01 -0.27 0.01	
									CHANNELS 3 Zrotation Xrotation Yrotation
									End Site
									{
										OFFSET 0 -0.15 0
									}
								}
							}
						}
					}
					JOINT RightCollar
					{
						OFFSET 0 0.1 0	
						CHANNELS 3 Zrotation Xrotation Yrotation
						JOINT RightUpperArm
						{
							OFFSET -0.156 -0.02 0.03	
							CHANNELS 3 Zrotation Xrotation Yrotation
							JOINT RightForeArm
							{
								OFFSET -0.035 -0.27 -0.01	
								CHANNELS 3 Zrotation Xrotation Yrotation
								JOINT RightHand
								{
									OFFSET -0.01 -0.27 0.01	
									CHANNELS 3 Zrotation Xrotation Yrotation
									End Site
									{
										OFFSET 0 -0.15 0
									}
								}
							}
						}
					}
					JOINT Neck
					{
						OFFSET 0 0.1 0	
						CHANNELS 3 Zrotation Xrotation Yrotation
						JOINT Head
						{
							OFFSET 0 0.127 0.03	
							CHANNELS 3 Zrotation Xrotation Yrotation
							End Site
							{
								OFFSET 0 0.127 0.03
							}
						}
					}
				}
			}
		}
	}
	JOINT LeftHip
	{
		OFFSET 0 0 0	
		CHANNELS 3 Zrotation Xrotation Yrotation
		JOINT LeftThigh
		{
			OFFSET 0.088 -0.06 0	
			CHANNELS 3 Zrotation Xrotation Yrotation
			JOINT LeftLowerLeg
			{
				OFFSET 0 -0.39 0.02	
				CHANNELS 3 Zrotation Xrotation Yrotation
				JOINT LeftFootTop
				{
					OFFSET 0 -0.43 -0.02	
					CHANNELS 3 Zrotation Xrotation Yrotation
					JOINT LeftFootFront
					{
						OFFSET 0 -0.07 0.085	
						CHANNELS 3 Zrotation Xrotation Yrotation
						End Site
						{
							OFFSET 0 -0.005 0.09
						}
					}
				}
				JOINT LeftHeel
				{
					OFFSET 0 -0.43 -0.02	
					CHANNELS 3 Zrotation Xrotation Yrotation
					End Site
					{
						OFFSET 0 -0.075 -0.05
					}
				}
			}
		}
	}
	JOINT RightHip
	{
		OFFSET 0 0 0	
		CHANNELS 3 Zrotation Xrotation Yrotation
		JOINT RightThigh
		{
			OFFSET -0.088 -0.06 0	
			CHANNELS 3 Zrotation Xrotation Yrotation
			JOINT RightLowerLeg
			{
				OFFSET 0 -0.39 0.02	
				CHANNELS 3 Zrotation Xrotation Yrotation
				JOINT RightFootTop
				{
					OFFSET 0 -0.43 -0.02	
					CHANNELS 3 Zrotation Xrotation Yrotation
					JOINT RightFootFront
					{
						OFFSET 0 -0.07 0.085	
						CHANNELS 3 Zrotation Xrotation Yrotation
						End Site
						{
							OFFSET 0 -0.005 0.09
						}
					}
				}
				JOINT RightHeel
				{
					OFFSET 0 -0.43 -0.02	
					CHANNELS 3 Zrotation Xrotation Yrotation
					End Site
					{
						OFFSET 0 -0.075 -0.05
					}
				}
			}
		}
	}
}
MOTION
Frames: 19
Frame Time: 0.05
0.041179 0.95104 0.38747 -0 0 -0 21.032 13.023 -35.463 0.20117 -2.7426 7.5838 0.20118 -2.7426 7.5838 0.14457 -2.3059 6.3689 -0 0 -0 3.89 7.2014 16.999 -2.633 -0.78056 1.7857 19.05 -6.6303 -35.867 -0 0 -0 -27.366 -3.4989 -54.366 -6.2685 -2.7854 -42.071 -22.696 13.307 -30.603 -3.883 2.9036 14.517 -4.0322 0.15554 20.709 21.032 13.023 -35.463 1.7566 21.399 38.698 -17.765 -17.48 -10.816 -8.7365 -5.4202 -6.9188 0.32285 -0.32169 -0.22962 -0 0 -0 21.032 13.023 -35.463 -9.2164 -38.192 -11.581 -8.3777 15.442 7.1697 -9.6269 15.665 -4.2291 -0.0098941 -20.599 -0.045512 -0 0 -0 
0.055057 0.94868 0.38627 -0 0 -0 20.8 13.488 -32.467 -0.10871 -2.6578 7.3723 -0.10872 -2.6578 7.3723 -0.11432 -2.2319 6.1923 -0 0 -0 4.099 5.1788 13.821 -3.3307 -3.7552 2.5043 17.075 -7.141 -33.104 -0 0 -0 -26.566 -3.3152 -52.859 -7.2431 -1.2192 -42.807 -25.391 9.5325 -21.988 -3.735 2.2658 14.333 -4.0696 -0.37654 20.361 20.8 13.488 -32.467 0.17748 18.991 40.501 -17.71 -18.411 -8.4965 -10.71 -2.1217 -8.9086 -0.16909 0.60898 -0.67482 -0 0 -0 20.8 13.488 -32.467 -11.522 -38.571 -14.309 -9.1329 16.197 7.3667 -8.3316 15.115 -5.2699 0.11511 -19.876 -0.057784 -0 0 -0 
0.071331 0.94533 0.38509 -0 0 -0 20.035 14.012 -29.104 -0.22043 -2.5847 6.8184 -0.22043 -2.5847 6.8184 -0.20585 -2.1697 5.7275 -0 0 -0 4.3497 3.6012 11.548 -3.6093 -6.0956 3.0501 15.537 -9.0778 -29.954 -0 0 -0 -25.156 -3.723 -50.912 -8.019 -0.30035 -41.079 -27.66 2.9323 -14.069 -3.6977 1.6347 14.518 -4.0475 -0.90702 20.09 20.035 14.012 -29.104 -0.98749 16.765 41.578 -17.572 -18.885 -6.9602 -12.623 1.8373 -8.9886 0.40503 -0.84706 -0.41009 -0 0 -0 20.035 14.012 -29.104 -14.184 -38.559 -17.13 -9.2689 17.089 6.7351 -7.0581 14.559 -5.9255 -0.074135 -19.176 -0.032554 -0 0 -0 
0.089607 0.94067 0.38427 -0 0 -0 18.893 14.288 -25.831 -0.28676 -2.4581 6.0348 -0.28676 -2.4581 6.0348 -0.25829 -2.063 5.0695 -0 0 -0 4.9123 2.5738 10.397 -4.1556 -8.2778 3.5957 14.51 -10.844 -27.479 -0 0 -0 -23.181 -5.1356 -48.341 -8.7352 -0.31335 -37.592 -27.869 -4.5293 -8.6452 -3.594 0.83085 14.932 -3.9127 -1.5485 19.86 18.893 14.288 -25.831 -1.2581 14.973 40.866 -17.404 -18.625 -6.8648 -14.108 4.2603 -6.0088 -0.18215 -0.6866 0.8822 -0 0 -0 18.893 14.288 -25.831 -16.774 -38.172 -20.281 -9.2126 18.164 6.0499 -6.1467 13.866 -5.9811 -0.0098981 -18.482 0.060599 -0 0 -0 
0.10945 0.93446 0.38422 -0 0 -0 17.23 14.385 -22.996 -0.17155 -2.3897 5.1847 -0.17155 -2.3897 5.1847 -0.15864 -2.0064 4.3552 -0 0 -0 5.5967 2.3872 10.183 -4.7819 -10.057 3.3984 13.897 -11.658 -25.484 -0 0 -0 -21.383 -7.6637 -44.603 -9.5356 -0.86346 -32.999 -25.388 -9.5677 -6.4196 -3.4866 0.082488 15.408 -3.644 -2.1851 19.634 17.23 14.385 -22.996 -0.088935 13.667 37.036 -16.94 -18.235 -7.8372 -14.18 5.0754 -0.16119 -2.3255 0.50043 2.0556 -0 0 -0 17.23 14.385 -22.996 -18.552 -37.729 -22.869 -9.2255 19.475 5.6864 -5.1972 13.244 -6.0529 0.034105 -17.847 0.016793 -0 0 -0 
0.13046 0.92668 0.38528 -0 0 -0 15.047 14.278 -20.81 0.099868 -2.2997 4.4082 0.099866 -2.2997 4.4082 0.071987 -1.9324 3.7023 -0 0 -0 6.3276 2.6616 10.685 -5.3335 -10.833 2.534 13.706 -11.961 -24.69 -0 0 -0 -19.702 -10.998 -39.717 -9.0945 -1.9117 -29.51 -22.991 -12.009 -5.0412 -3.3123 -0.74972 15.769 -3.1888 -2.8912 19.356 15.047 14.278 -20.81 1.3575 14.329 32.494 -16.936 -18.797 -9.4745 -11.987 3.0985 4.929 -2.3298 2.4198 1.4175 -0 0 -0 15.047 14.278 -20.81 -19.372 -37.368 -24.135 -9.4297 21.3 5.4243 -3.9461 12.619 -6.4512 0.070224 -17.436 0.0050674 -0 0 -0 
0.15238 0.91784 0.38733 -0 0 -0 12.566 13.71 -19.519 0.37615 -2.1654 4.1217 0.37615 -2.1654 4.1217 0.30548 -1.8208 3.461 -0 0 -0 6.9134 2.852 11.259 -5.7588 -10.358 0.86222 14.134 -11.908 -25.247 -0 0 -0 -18.267 -14.232 -35.47 -7.3628 -2.9422 -27.063 -21.884 -14.562 -3.1406 -2.9954 -1.6481 15.456 -2.5894 -3.6444 18.822 12.566 13.71 -19.519 2.2909 16.685 29.237 -17.2 -19.652 -10.701 -8.1332 0.12142 7.5158 0.97376 0.20717 -0.60516 -0 0 -0 12.566 13.71 -19.519 -19.499 -37.185 -24.077 -9.8109 23.86 4.9385 -2.5171 11.848 -6.5877 -0.01058 -17.246 0.028451 -0 0 -0 
0.17491 0.90909 0.38956 -0 0 -0 9.7902 12.803 -18.978 0.83099 -2.3052 4.1886 0.83099 -2.3052 4.1886 0.68667 -1.9406 3.5158 -0 0 -0 6.9971 3.0182 13.227 -5.8836 -8.2382 -2.5407 15.423 -11.384 -26.234 -0 0 -0 -15.865 -16.161 -32.936 -6.2284 -5.4165 -22.789 -22.633 -16.969 0.26483 -2.9094 -1.8701 14.992 -2.1077 -3.9832 18.411 9.7902 12.803 -18.978 4.1941 16.399 26.855 -16.966 -16.752 -11.727 -2.6872 -3.5533 9.6963 1.4568 -1.8443 -0.35833 -0 0 -0 9.7902 12.803 -18.978 -19.046 -37.188 -23.319 -10.341 27.556 4.7282 -1.1141 10.344 -6.5509 -0.018405 -17.138 0.012522 -0 0 -0 
0.19762 0.90197 0.39073 -0 0 -0 6.4556 12.297 -19.212 2.3935 -3.4641 5.1408 2.3935 -3.4641 5.1408 1.9893 -2.9245 4.3077 -0 0 -0 4.3048 4.8934 15.185 -4.7624 -5.2105 -5.4414 17.348 -10.667 -27.902 -0 0 -0 -13.45 -13.434 -30.345 -7.2406 -9.9614 -18.662 -25.122 -18.669 5.0458 -4.6314 0.87237 13.757 -2.6982 -2.3924 17.812 6.4556 12.297 -19.212 4.6389 19.046 29.562 -17.787 -17.228 -14.023 0.79075 -6.0749 9.4247 0.51939 -0.18847 -0.076034 -0 0 -0 6.4556 12.297 -19.212 -16.867 -37.612 -18.836 -10.281 31.824 1.6345 0.8291 7.5318 -6.2455 -0.14378 -16.04 0.14206 -0 0 -0 
0.22004 0.89765 0.39014 -0 0 -0 4.2259 11.85 -19.497 1.8306 -3.2398 7.5334 1.8306 -3.2398 7.5334 1.509 -2.7381 6.32 -0 0 -0 5.0883 1.0976 14.349 -1.551 -1.9181 -6.7024 18.992 -10.601 -28.528 -0 0 -0 -9.6386 -13.574 -30.849 -7.9803 -13.155 -18.546 -26.336 -20.35 9.6663 -4.3988 1.2582 9.7484 -3.0036 -1.9627 15.835 4.2259 11.85 -19.497 4.6682 19.898 30.726 -17.897 -18.274 -14.172 2.0245 -5.7844 8.8611 0.060694 -6.2368 0.043131 -0 0 -0 4.2259 11.85 -19.497 -14.499 -38.162 -13.373 -11.366 35.095 -1.5236 3.6641 4.1127 -6.0533 -0.17507 -5.573 -0.019138 -0 0 -0 
0.24183 0.89631 0.38828 -0 0 -0 3.1038 8.9566 -18.305 1.2249 -2.5071 8.5447 1.2249 -2.5071 8.5447 1.0039 -2.1187 7.1732 -0 0 -0 4.371 -0.76431 15.999 1.7064 0.069807 -5.3191 20.934 -10.921 -27.173 -0 0 -0 -9.3051 -13.128 -29.259 -6.1033 -13.469 -19.853 -26.75 -21.514 13.337 -4.6603 1.2256 7.7089 -3.7739 -1.4765 14.682 3.1038 8.9566 -18.305 4.222 21.858 29.612 -17.72 -18.432 -13.577 2.4229 -5.5652 8.0074 -0.03324 -4.7398 0.034953 -0 0 -0 3.1038 8.9566 -18.305 -13.963 -33.541 -10.102 -13.321 36.327 -0.66966 5.1011 -1.0085 -7.6969 2.0107 -0.30005 -1.1228 -0 0 -0 
0.2628 0.89704 0.38667 -0 0 -0 1.1739 5.1988 -16.452 1.2614 -1.2658 8.85 1.2614 -1.2658 8.85 1.0466 -1.0766 7.4319 -0 0 -0 3.2684 -2.126 17.267 3.4611 2.2534 -0.22348 23.045 -11.651 -26.147 -0 0 -0 -10.528 -12.414 -28.588 -2.9829 -13.981 -19.041 -26.71 -20.521 15.032 -5.2291 -0.25476 6.3426 -4.1084 -2.0004 13.648 1.1739 5.1988 -16.452 3.6739 25.474 29.742 -17.59 -18.715 -14.336 2.8038 -5.973 6.5871 -0.0083444 -3.0853 0.024506 -0 0 -0 1.1739 5.1988 -16.452 -11.951 -29.132 -4.9576 -14.881 41.343 3.5028 4.7939 -7.6346 -12.755 0.72306 -2.2328 -2.0287 -0 0 -0 
0.28298 0.89851 0.38704 -0 0 -0 -0.34548 2.3019 -14.085 0.82749 -0.24386 9.3378 0.82749 -0.24386 9.3378 0.69259 -0.21396 7.8435 -0 0 -0 3.8902 -3.7069 15.421 3.9068 5.388 5.7268 24.583 -12.233 -26.705 -0 0 -0 -11.13 -11.083 -30.551 -0.27559 -15.037 -15.939 -26.099 -17.82 14.108 -5.0078 -2.348 4.3214 -3.95 -3.222 12.128 -0.34548 2.3019 -14.085 3.6688 28.305 29.639 -17.726 -18.812 -15.193 2.9973 -6.5735 4.8291 0.071764 -1.5961 -0.019257 -0 0 -0 -0.34548 2.3019 -14.085 -8.2419 -26.318 5.0798 -12.826 49.51 2.9473 1.5944 -13.7 -18.368 -0.69356 -0.60142 -1.27 -0 0 -0 
0.30252 0.89963 0.39051 -0 0 -0 -0.74455 0.27644 -10.337 -0.019706 0.13714 9.43 -0.019706 0.13714 9.43 -0.01504 0.11544 7.9212 -0 0 -0 5.3694 -3.7985 12.865 3.9223 7.6244 8.0256 25.447 -11.297 -28.601 -0 0 -0 -11.262 -8.4197 -32.425 2.103 -15.726 -14.258 -25.97 -16.441 13.639 -4.22 -3.4602 2.4601 -3.7179 -3.8932 10.387 -0.74455 0.27644 -10.337 3.9074 30.041 27.847 -17.689 -18.886 -16.2 3.1538 -7.2355 3.3705 -0.21961 -0.27236 -0.0063069 -0 0 -0 -0.74455 0.27644 -10.337 -3.8877 -24.293 12.386 -10.496 55.727 1.3668 -2.2619 -15.174 -21.336 -0.94939 0.23313 -0.34 -0 0 -0 
0.32169 0.89981 0.39747 -0 0 -0 -1.0953 -0.97325 -5.7537 -0.68417 0.3034 8.971 -0.68417 0.3034 8.971 -0.57163 0.26211 7.5354 -0 0 -0 6.4931 -2.9534 12.141 4.2885 8.0989 5.6203 25.758 -9.0892 -31.409 -0 0 -0 -11.118 -5.5267 -32.827 3.5369 -15.637 -12.602 -26.236 -15.567 12.462 -3.4346 -3.914 1.2012 -3.4623 -4.0686 8.7578 -1.0953 -0.97325 -5.7537 4.5003 30.939 25.023 -17.107 -18.811 -17.134 3.3435 -8.1874 2.2206 -0.1089 -0.043045 -0.036506 -0 0 -0 -1.0953 -0.97325 -5.7537 1.3177 -22.996 15.997 -11.153 59.42 2.903 -3.8498 -14.937 -21.435 -1.803 0.84155 -0.62066 -0 0 -0 
0.34091 0.89881 0.40769 -0 0 -0 -1.185 -1.7558 -1.3106 -1.2642 0.3942 8.5305 -1.2642 0.3942 8.5305 -1.0582 0.34384 7.165 -0 0 -0 7.2558 -1.3908 11.908 3.7327 6.8227 2.8713 25.777 -7.5361 -33.637 -0 0 -0 -10.478 -2.7971 -33.548 3.9806 -14.583 -9.7447 -25.947 -13.856 10.882 -2.8152 -3.8755 0.069727 -3.3667 -3.8527 7.2593 -1.185 -1.7558 -1.3106 4.9108 31.497 21.961 -15.941 -18.722 -17.886 3.6372 -9.2476 1.5889 -0.19958 -0.2051 -0.038008 -0 0 -0 -1.185 -1.7558 -1.3106 7.0839 -22.437 19.254 -12.457 60.728 4.5654 -3.6309 -13.645 -19.877 -1.0253 0.82277 -0.27293 -0 0 -0 
0.36049 0.89672 0.42046 -0 0 -0 -1.0919 -1.9404 2.7636 -1.8569 0.29033 8.3706 -1.8569 0.29033 8.3706 -1.5572 0.26216 7.0307 -0 0 -0 7.9217 0.25785 11.825 2.5611 4.9251 0.79693 24.922 -7.4682 -33.637 -0 0 -0 -8.9486 -0.40003 -34.952 3.6376 -12.585 -7.3056 -24.681 -11.693 10.436 -2.1583 -3.4085 -1.3262 -3.2813 -3.3849 5.7218 -1.0919 -1.9404 2.7636 4.7508 31.97 20.266 -14.886 -18.588 -18.55 3.8992 -10.427 0.11445 -0.057861 -0.21917 -0.01223 -0 0 -0 -1.0919 -1.9404 2.7636 12.431 -22.818 23.019 -12.399 59.685 4.678 -2.0122 -12.1 -17.47 0.18265 0.85478 0.90452 -0 0 -0 
0.38048 0.89391 0.43497 -0 0 -0 -1.178 -1.6179 6.8209 -2.0738 0.21019 8.1836 -2.0738 0.21019 8.1836 -1.7403 0.19651 6.8738 -0 0 -0 7.6534 1.3818 12.182 1.0171 3.1901 -0.56752 23.526 -8.1723 -31.911 -0 0 -0 -7.4418 1.4595 -35.672 2.6422 -10.217 -6.2371 -22.838 -9.5345 10.754 -1.9707 -3.114 -2.6944 -3.3236 -3.131 4.1924 -1.178 -1.6179 6.8209 4.7004 32.131 19.18 -14.248 -18.279 -18.97 4.1872 -11.599 -2.2108 0.26443 -0.10012 -0.010119 -0 0 -0 -1.178 -1.6179 6.8209 16.865 -23.894 26.903 -11.459 56.38 3.7472 0.44673 -10.265 -14.866 0.47602 0.623 0.93749 -0 0 -0 
0.40072 0.89078 0.45062 -0 0 -0 -1.7372 -1.3027 11.032 -2.0276 0.094719 7.9559 -2.0276 0.094719 7.9559 -1.7026 0.098503 6.6828 -0 0 -0 7.3264 2.2489 11.966 -0.5878 1.8331 -1.1114 22.42 -8.6454 -30.777 -0 0 -0 -5.4059 3.1543 -35.74 1.2426 -7.9244 -6.3779 -20.929 -7.5731 11.592 -1.731 -2.8845 -4.1477 -3.0858 -2.9679 2.544 -1.7372 -1.3027 11.032 5.7598 32.109 17.13 -13.989 -18.033 -19.071 4.3798 -12.284 -4.3704 0.27141 -1.2852 -0.0089968 -0 0 -0 -1.7372 -1.3027 11.032 20.267 -25.363 30.137 -10.587 51.331 3.3782 2.5536 -8.6076 -13.417 0.36813 0.66271 0.27518 -0 0 -0 
